/* XPM */
static char *bottom_inactive[] = {
/* columns rows colors chars-per-pixel */
"23 3 2 1",
"  c #191919",
". c gray21",
/* pixels */
"                       ",
"                       ",
"......................."
};
