/* XPM */
static char *close_inactive[] = {
/* columns rows colors chars-per-pixel */
"14 23 36 1",
"  c #191919",
". c gray10",
"X c #1B1B1B",
"o c gray11",
"O c #1D1D1D",
"+ c #1E1E1E",
"@ c gray12",
"# c #202020",
"$ c gray13",
"% c #222222",
"& c #232323",
"* c gray14",
"= c #252525",
"- c gray15",
"; c #272727",
": c #282828",
"> c gray16",
", c #2A2A2A",
"< c gray17",
"1 c #2F2F2F",
"2 c gray25",
"3 c gray26",
"4 c #444444",
"5 c gray31",
"6 c #505050",
"7 c gray32",
"8 c #535353",
"9 c #565656",
"0 c #5A5A5A",
"q c #5D5D5D",
"w c #929292",
"e c gray58",
"r c #989898",
"t c #9B9B9B",
"y c #EEEEEE",
"u c gray100",
/* pixels */
"88888888888888",
"<<<<<<<<<<<<<<",
"<<<<<<<<<<<<<<",
",,,,,,,,,,,,,,",
">>>>>>>>>>>>>>",
"::::::::::::::",
";;;;360063;;;;",
"---5qqqqqq5---",
"==5724994275==",
"*3q2yr11ry2q3*",
"&6q4tueeut4q6&",
"%0q91wuuw19q0%",
"$0q91wuuw19q0$",
"#6q4tueeut4q6#",
"@3q2yr11ry2q3@",
"++5724994275++",
"OOO5qqqqqq5OOO",
"oooo360063oooo",
"XXXXXXXXXXXXXX",
"..............",
"              ",
"              ",
"              "
};
