/* XPM */
static char *close_pressed[] = {
/* columns rows colors chars-per-pixel */
"14 23 44 1",
"  c #151515",
". c #161616",
"X c gray9",
"o c #181818",
"O c #191919",
"+ c gray10",
"@ c #1B1B1B",
"# c gray11",
"$ c #1E1E1E",
"% c gray12",
"& c #202020",
"* c gray13",
"= c #222222",
"- c gray14",
"; c #252525",
": c gray15",
"> c #272727",
", c #282828",
"< c gray16",
"1 c #2A2A2A",
"2 c gray17",
"3 c #2F2F2F",
"4 c #343434",
"5 c #353535",
"6 c #373737",
"7 c gray22",
"8 c gray25",
"9 c #444444",
"0 c #464646",
"q c gray28",
"w c #484848",
"e c #494949",
"r c gray32",
"t c #535353",
"y c #565656",
"u c gray34",
"i c #585858",
"p c #5D5D5D",
"a c #929292",
"s c gray58",
"d c #989898",
"f c #9B9B9B",
"g c #EEEEEE",
"h c gray100",
/* pixels */
"tttttttttttttt",
"22222222222222",
"22222222222222",
"11111111111111",
"<<<,,>::>,,<<<",
",,:;=&%%&=;:,,",
">;=;7eiie7;=;>",
";*2qppppppq2*;",
"=-qr89yy98rq-=",
"%6p8gd33dg8p6%",
"#wp9fhsshf9pw#",
"@upy3ahha3ypu@",
"+upy3ahha3ypu+",
"+wp9fhsshf9pw+",
"@5p8gd33dg8p5@",
"@%0r89yy98r0%@",
"#O;0pppppp0;O#",
"#@O$4quuq4$O@#",
"@@+OX.  .XO+@@",
"++++OOooOO++++",
"OOOOOOOOOOOOOO",
"OOOOOOOOOOOOOO",
"OOOOOOOOOOOOOO"
};
