/* XPM */
static char *close_active[] = {
/* columns rows colors chars-per-pixel */
"14 23 37 1",
"  c #191919",
". c gray10",
"X c #1B1B1B",
"o c gray11",
"O c #1D1D1D",
"+ c #1E1E1E",
"@ c gray12",
"# c #202020",
"$ c gray13",
"% c #222222",
"& c #232323",
"* c gray14",
"= c #252525",
"- c gray15",
"; c #272727",
": c #282828",
"> c gray16",
", c #2A2A2A",
"< c gray17",
"1 c #3C3C3C",
"2 c #535353",
"3 c #555555",
"4 c gray34",
"5 c #585858",
"6 c gray44",
"7 c gray46",
"8 c #767676",
"9 c #777777",
"0 c gray54",
"q c gray56",
"w c #989898",
"e c #D0D0D0",
"r c #D2D2D2",
"t c #D5D5D5",
"y c #D8D8D8",
"u c #FEFEFE",
"i c gray100",
/* pixels */
"22222222222222",
"<<<<<<<<<<<<<<",
"<<<<<<<<<<<<<<",
",,,,,,,,,,,,,,",
">>>>>>>>>>>>>>",
"::::::::::::::",
";;;;59qq85;;;;",
"--17wwwwww71--",
"=;7068qq8607;=",
"*4w6ut33tu6w5*",
"&9w8yirriy8w9&",
"%qwq3eiie3qwq%",
"$qwq3eiie3qwq$",
"#9w8yirriy8w9#",
"@5w6ut33tu6w5@",
"+;7068qq8607;+",
"OO17wwwwww71OO",
"ooo;59qq95;ooo",
"XXXXXXXXXXXXXX",
"..............",
"              ",
"              ",
"              "
};
