/* XPM */
static char *hide_active[] = {
/* columns rows colors chars-per-pixel */
"14 23 23 1",
"  c #191919",
". c gray10",
"X c #1B1B1B",
"o c gray11",
"O c #1D1D1D",
"+ c #1E1E1E",
"@ c gray12",
"# c #202020",
"$ c gray13",
"% c #222222",
"& c #232323",
"* c gray14",
"= c #252525",
"- c gray15",
"; c #272727",
": c #282828",
"> c gray16",
", c #2A2A2A",
"< c gray17",
"1 c #535353",
"2 c #A9A9A9",
"3 c #E4E4E4",
"4 c #FEFEFE",
/* pixels */
"11111111111111",
"<<<<<<<<<<<<<<",
"<<<<<<<<<<<<<<",
",,,,,,,,,,,,,,",
">>>>>>>>>>>>>>",
"::::::::::::::",
";;;;;;;;;;;;;;",
"--------------",
"==============",
"**************",
"&&&&&&&&&&&&&&",
"%%%%234432%%%%",
"$$$$234432$$$$",
"##############",
"@@@@@@@@@@@@@@",
"++++++++++++++",
"OOOOOOOOOOOOOO",
"oooooooooooooo",
"XXXXXXXXXXXXXX",
"..............",
"              ",
"              ",
"              "
};
