/* XPM */
static char *hide_pressed[] = {
/* columns rows colors chars-per-pixel */
"14 23 25 1",
"  c #181818",
". c #191919",
"X c gray10",
"o c #1B1B1B",
"O c gray11",
"+ c #1D1D1D",
"@ c #1E1E1E",
"# c gray12",
"$ c #202020",
"% c gray13",
"& c #222222",
"* c #232323",
"= c gray14",
"- c #252525",
"; c gray15",
": c #272727",
"> c #282828",
", c gray16",
"< c #2A2A2A",
"1 c gray17",
"2 c #535353",
"3 c #5A5A5A",
"4 c #5B5B5B",
"5 c #767676",
"6 c #838383",
/* pixels */
"22222222222222",
"11111111111111",
"11111111111111",
"<<<<<<<<<<<<<<",
",,,,,,,,,,,,,,",
">>>>>>>>>>>>>>",
"::::::::::::::",
";;;;;;;;;;;;;;",
"--------------",
"==============",
"***&@OooO@&***",
"&&&@456654@&&&",
"%%%+356653+%%%",
"$$$#O.  .O#$$$",
"##############",
"@@@@@@@@@@@@@@",
"++++++++++++++",
"OOOOOOOOOOOOOO",
"oooooooooooooo",
"XXXXXXXXXXXXXX",
"..............",
"..............",
".............."
};
