/* XPM */
static char *left_active[] = {
/* columns rows colors chars-per-pixel */
"3 34 2 1",
"  c #191919",
". c gray21",
/* pixels */
".  ",
".  ",
".  ",
".  ",
".  ",
".  ",
".  ",
".  ",
".  ",
".  ",
".  ",
".  ",
".  ",
".  ",
".  ",
".  ",
".  ",
".  ",
".  ",
".  ",
".  ",
".  ",
".  ",
".  ",
".  ",
".  ",
".  ",
".  ",
".  ",
".  ",
".  ",
".  ",
".  ",
".  "
};
