/* XPM */
static char *maximize_pressed[] = {
/* columns rows colors chars-per-pixel */
"14 23 27 1",
"  c gray8",
". c #161616",
"X c #191919",
"o c gray10",
"O c #1B1B1B",
"+ c gray11",
"@ c #1D1D1D",
"# c #1E1E1E",
"$ c gray12",
"% c #202020",
"& c gray13",
"* c #222222",
"= c #232323",
"- c gray14",
"; c #252525",
": c gray15",
"> c #272727",
", c #282828",
"< c gray16",
"1 c #2A2A2A",
"2 c gray17",
"3 c #535353",
"4 c #5A5A5A",
"5 c #5B5B5B",
"6 c #767676",
"7 c #7C7C7C",
"8 c #838383",
/* pixels */
"33333333333333",
"22222222222222",
"22222222222222",
"11111111111111",
"<<<<<<<<<<<<<<",
",,,,,,,,,,,,,,",
">>>>>>>>>>>>>>",
"::::::::::::::",
";;;;;-&&-;;;;;",
"-----$55$-----",
"===*#.77.#*===",
"***#568865#***",
"&&&@468864@&&&",
"%%%$+ 77 +$%%%",
"$$$$$O44O$$$$$",
"#####@oo@#####",
"@@@@@@@@@@@@@@",
"++++++++++++++",
"OOOOOOOOOOOOOO",
"oooooooooooooo",
"XXXXXXXXXXXXXX",
"XXXXXXXXXXXXXX",
"XXXXXXXXXXXXXX"
};
