/* XPM */
static char *top_right_active[] = {
/* columns rows colors chars-per-pixel */
"2 23 14 1",
"  c #191919",
". c #1B1B1B",
"X c gray12",
"o c #232323",
"O c gray15",
"+ c gray17",
"@ c gray21",
"# c #3A3A3A",
"$ c #3E3E3E",
"% c #414141",
"& c #464646",
"* c gray29",
"= c #4E4E4E",
"- c #535353",
/* pixels */
"--",
"+-",
"+-",
"+-",
"+=",
"+=",
"O=",
"O*",
"O=",
"o*",
"o&",
"o&",
"o&",
"X%",
"X%",
"X$",
"X$",
".#",
".#",
".#",
".#",
".@",
".@"
};
