/* XPM */
static char *un_top_left[] = {
/* columns rows colors chars-per-pixel */
"2 23 14 1",
"  c #191919",
". c #1B1B1B",
"X c gray12",
"o c #232323",
"O c #272727",
"+ c gray17",
"@ c gray21",
"# c gray22",
"$ c #3F3F3F",
"% c gray26",
"& c #464646",
"* c gray29",
"= c #4E4E4E",
"- c #535353",
/* pixels */
"--",
"-+",
"-+",
"-+",
"-O",
"=O",
"=O",
"=O",
"*O",
"*o",
"&O",
"&o",
"%o",
"%X",
"$X",
"$X",
"$.",
"$.",
"#.",
"#.",
"@.",
"@.",
"@."
};
